<svg width="19" height="18" viewBox="0 0 19 18" fill="none" xmlns="http://www.w3.org/2000/svg">
<path d="M0.5 6.71053C0.5 5.33112 0.5 4.64142 0.825667 4.14295C0.976933 3.91142 1.17457 3.71378 1.4061 3.56251C1.90457 3.23685 2.59428 3.23685 3.97368 3.23685H15.0263C16.4057 3.23685 17.0954 3.23685 17.5939 3.56251C17.8254 3.71378 18.0231 3.91142 18.1743 4.14295C18.5 4.64142 18.5 5.33112 18.5 6.71053C18.5 7.05538 18.5 7.22781 18.4186 7.35243C18.3808 7.41031 18.3314 7.45972 18.2735 7.49754C18.1489 7.57895 17.9764 7.57895 17.6316 7.57895H1.36842C1.02357 7.57895 0.851144 7.57895 0.726526 7.49754C0.668644 7.45972 0.619233 7.41031 0.581417 7.35243C0.5 7.22781 0.5 7.05538 0.5 6.71053Z" fill="#223151"/>
<path fill-rule="evenodd" clip-rule="evenodd" d="M0.5 14C0.5 15.8856 0.5 16.8284 1.08579 17.4142C1.67157 18 2.61438 18 4.5 18H14.5C16.3856 18 17.3284 18 17.9142 17.4142C18.5 16.8284 18.5 15.8856 18.5 14V10.3158C18.5 9.84436 18.5 9.60866 18.3536 9.46221C18.2071 9.31577 17.9714 9.31577 17.5 9.31577H1.5C1.0286 9.31577 0.792893 9.31577 0.646447 9.46221C0.5 9.60866 0.5 9.84436 0.5 10.3158V14ZM5 11.921C5 11.5762 5 11.4037 5.08142 11.2791C5.11923 11.2212 5.16864 11.1718 5.22653 11.134C5.35114 11.0526 5.52357 11.0526 5.86842 11.0526H7.73158C8.07643 11.0526 8.24886 11.0526 8.37347 11.134C8.43136 11.1718 8.48077 11.2212 8.51858 11.2791C8.6 11.4037 8.6 11.5762 8.6 11.921C8.6 12.2659 8.6 12.4383 8.51858 12.5629C8.48077 12.6208 8.43136 12.6702 8.37347 12.708C8.24886 12.7894 8.07643 12.7894 7.73158 12.7894H5.86842C5.52357 12.7894 5.35114 12.7894 5.22653 12.708C5.16864 12.6702 5.11923 12.6208 5.08142 12.5629C5 12.4383 5 12.2659 5 11.921ZM5.08142 14.7528C5 14.8774 5 15.0499 5 15.3947C5 15.7396 5 15.912 5.08142 16.0366C5.11923 16.0945 5.16864 16.1439 5.22653 16.1817C5.35114 16.2631 5.52357 16.2631 5.86842 16.2631H7.73158C8.07643 16.2631 8.24886 16.2631 8.37347 16.1817C8.43136 16.1439 8.48077 16.0945 8.51858 16.0366C8.6 15.912 8.6 15.7396 8.6 15.3947C8.6 15.0499 8.6 14.8774 8.51858 14.7528C8.48077 14.6949 8.43136 14.6455 8.37347 14.6077C8.24886 14.5263 8.07643 14.5263 7.73158 14.5263H5.86842C5.52357 14.5263 5.35114 14.5263 5.22653 14.6077C5.16864 14.6455 5.11923 14.6949 5.08142 14.7528ZM10.4001 11.921C10.4001 11.5762 10.4001 11.4037 10.4816 11.2791C10.5194 11.2212 10.5688 11.1718 10.6267 11.134C10.7513 11.0526 10.9237 11.0526 11.2686 11.0526H13.1317C13.4766 11.0526 13.649 11.0526 13.7736 11.134C13.8315 11.1718 13.8809 11.2212 13.9187 11.2791C14.0001 11.4037 14.0001 11.5762 14.0001 11.921C14.0001 12.2659 14.0001 12.4383 13.9187 12.5629C13.8809 12.6208 13.8315 12.6702 13.7736 12.708C13.649 12.7894 13.4766 12.7894 13.1317 12.7894H11.2686C10.9237 12.7894 10.7513 12.7894 10.6267 12.708C10.5688 12.6702 10.5194 12.6208 10.4816 12.5629C10.4001 12.4383 10.4001 12.2659 10.4001 11.921ZM10.4816 14.7528C10.4001 14.8774 10.4001 15.0499 10.4001 15.3947C10.4001 15.7396 10.4001 15.912 10.4816 16.0366C10.5194 16.0945 10.5688 16.1439 10.6267 16.1817C10.7513 16.2631 10.9237 16.2631 11.2686 16.2631H13.1317C13.4766 16.2631 13.649 16.2631 13.7736 16.1817C13.8315 16.1439 13.8809 16.0945 13.9187 16.0366C14.0001 15.912 14.0001 15.7396 14.0001 15.3947C14.0001 15.0499 14.0001 14.8774 13.9187 14.7528C13.8809 14.6949 13.8315 14.6455 13.7736 14.6077C13.649 14.5263 13.4766 14.5263 13.1317 14.5263H11.2686C10.9237 14.5263 10.7513 14.5263 10.6267 14.6077C10.5688 14.6455 10.5194 14.6949 10.4816 14.7528Z" fill="#223151"/>
<path d="M5 1.5L5 4.10526" stroke="#223151" stroke-width="2" stroke-linecap="round"/>
<path d="M14 1.5L14 4.10526" stroke="#223151" stroke-width="2" stroke-linecap="round"/>
</svg>
