<svg width="19" height="19" viewBox="0 0 19 19" fill="none" xmlns="http://www.w3.org/2000/svg">
<path fill-rule="evenodd" clip-rule="evenodd" d="M9.5 18.5C14.4706 18.5 18.5 14.4706 18.5 9.5C18.5 4.52944 14.4706 0.5 9.5 0.5C4.52944 0.5 0.5 4.52944 0.5 9.5C0.5 14.4706 4.52944 18.5 9.5 18.5ZM10 3.99997C10 3.72383 9.77614 3.49997 9.5 3.49997C9.22386 3.49997 9 3.72383 9 3.99997V9.24997C9 9.66418 9.33579 9.99997 9.75 9.99997H13C13.2761 9.99997 13.5 9.77611 13.5 9.49997C13.5 9.22383 13.2761 8.99997 13 8.99997H10V3.99997Z" fill="#223151"/>
</svg>
