<svg width="15" height="18" viewBox="0 0 15 18" fill="none" xmlns="http://www.w3.org/2000/svg">
<path fill-rule="evenodd" clip-rule="evenodd" d="M7.10563 0.0933228V4.2373L7.10563 4.29171C7.10554 4.71578 7.10546 5.12791 7.15116 5.46782C7.20268 5.85103 7.3282 6.2883 7.69142 6.65152C8.05464 7.01473 8.49191 7.14025 8.87511 7.19177C9.21502 7.23747 9.62715 7.23739 10.0512 7.23731H10.0512L10.1056 7.2373H14.14V12.3814C14.14 14.864 14.14 16.1053 13.3825 16.8765C12.625 17.6477 11.4059 17.6477 8.96768 17.6477H5.51949C3.08125 17.6477 1.86213 17.6477 1.10466 16.8765C0.347198 16.1053 0.347198 14.864 0.347198 12.3814V5.35965C0.347198 2.87708 0.347198 1.63579 1.10466 0.864559C1.86213 0.0933228 3.08125 0.0933228 5.51949 0.0933228H7.10563ZM9.10563 0.102213V4.2373C9.10563 4.73698 9.10776 5.01114 9.13333 5.20133L9.13433 5.20861L9.14161 5.20961C9.3318 5.23518 9.60596 5.2373 10.1056 5.2373H14.132C14.1197 4.94245 14.0884 4.73319 14.0087 4.53728C13.8775 4.21468 13.6283 3.96099 13.13 3.45363L13.13 3.45362L10.8397 1.12164C10.3414 0.614261 10.0922 0.360573 9.77536 0.226948C9.58691 0.147469 9.38589 0.115263 9.10563 0.102213ZM3.65745 9.74809C3.65745 9.1958 4.10516 8.74809 4.65745 8.74809H9.82973C10.382 8.74809 10.8297 9.19581 10.8297 9.74809C10.8297 10.3004 10.382 10.7481 9.82973 10.7481H4.65745C4.10516 10.7481 3.65745 10.3004 3.65745 9.74809ZM4.65745 12.2591C4.10516 12.2591 3.65745 12.7068 3.65745 13.2591C3.65745 13.8114 4.10516 14.2591 4.65745 14.2591H8.10564C8.65792 14.2591 9.10564 13.8114 9.10564 13.2591C9.10564 12.7068 8.65792 12.2591 8.10564 12.2591H4.65745Z" fill="white"/>
</svg>
