<svg width="21" height="19" viewBox="0 0 21 19" fill="none" xmlns="http://www.w3.org/2000/svg">
<path d="M11.5556 13.75V14.8125C11.5556 15.6579 11.2219 16.4686 10.6281 17.0664C10.0342 17.6642 9.22874 18 8.38889 18H4.16667C3.32681 18 2.52136 17.6642 1.9275 17.0664C1.33363 16.4686 1 15.6579 1 14.8125V4.1875C1 3.34212 1.33363 2.53137 1.9275 1.9336C2.52136 1.33583 3.32681 1 4.16667 1H8.38889C9.22874 1 10.0342 1.33583 10.6281 1.9336C11.2219 2.53137 11.5556 3.34212 11.5556 4.1875V5.25M15.7778 13.75L20 9.5L15.7778 13.75ZM20 9.5L15.7778 5.25L20 9.5ZM20 9.5H5.22222H20Z" stroke="white" stroke-width="2" stroke-linecap="round" stroke-linejoin="round"/>
</svg>
