<svg width="19" height="19" viewBox="0 0 19 19" fill="none" xmlns="http://www.w3.org/2000/svg">
<path fill-rule="evenodd" clip-rule="evenodd" d="M2.05793 2.01096C0.886353 3.18254 0.886353 5.06815 0.886353 8.83939V10.3938C0.886353 14.1651 0.886353 16.0507 2.05793 17.2222C3.2295 18.3938 5.11512 18.3938 8.88636 18.3938H10.4408C14.212 18.3938 16.0976 18.3938 17.2692 17.2222C18.4408 16.0507 18.4408 14.1651 18.4408 10.3938V8.83939C18.4408 6.12108 18.4408 4.38245 18.002 3.18475V14.0052C17.159 14.0052 16.3506 13.6703 15.7545 13.0742L15.0947 12.4145L15.0947 12.4145C14.6241 11.9438 14.3888 11.7085 14.1411 11.5718C13.5395 11.2397 12.8096 11.2397 12.208 11.5718C11.9604 11.7085 11.725 11.9439 11.2544 12.4145L11.1551 12.5138L11.1551 12.5138L11.1551 12.5138C10.7572 12.9117 10.5583 13.1106 10.3606 13.1868C10.0041 13.3242 9.60052 13.2464 9.32056 12.9865C9.1653 12.8423 9.05448 12.5838 8.83283 12.0666L8.78595 11.9572C8.25839 10.7262 7.99461 10.1107 7.59745 9.79625C7.08641 9.39159 6.41023 9.26137 5.78545 9.44729C5.29989 9.59178 4.82639 10.0653 3.8794 11.0123L3.8794 11.0123L2.20304 12.6886V1.87502C2.15346 1.91849 2.10511 1.96377 2.05793 2.01096Z" fill="white"/>
<path d="M1.88635 8.83936C1.88635 6.92547 1.88848 5.59065 2.02388 4.58352C2.15542 3.60515 2.39601 3.08705 2.76503 2.71804C3.13405 2.34902 3.65215 2.10842 4.63051 1.97688C5.63765 1.84148 6.97246 1.83936 8.88635 1.83936H10.4408C12.3547 1.83936 13.6895 1.84148 14.6966 1.97688C15.675 2.10842 16.1931 2.34902 16.5621 2.71804C16.9311 3.08705 17.1717 3.60515 17.3032 4.58352C17.4387 5.59065 17.4408 6.92547 17.4408 8.83935V10.3938C17.4408 12.3077 17.4387 13.6425 17.3032 14.6496C17.1717 15.628 16.9311 16.1461 16.5621 16.5151C16.1931 16.8841 15.675 17.1247 14.6966 17.2563C13.6895 17.3917 12.3547 17.3938 10.4408 17.3938H8.88636C6.97247 17.3938 5.63765 17.3917 4.63051 17.2563C3.65215 17.1247 3.13405 16.8841 2.76503 16.5151C2.39601 16.1461 2.15542 15.628 2.02388 14.6496C1.88848 13.6425 1.88635 12.3077 1.88635 10.3938V8.83936Z" stroke="white" stroke-width="2"/>
<circle cx="12.2967" cy="6.98345" r="1.75544" fill="#D2D7DB"/>
</svg>
