<svg width="16" height="21" viewBox="0 0 16 21" fill="none" xmlns="http://www.w3.org/2000/svg">
<path d="M6.5625 0C6.2144 0 5.88056 0.138281 5.63442 0.384422C5.38828 0.630564 5.25 0.964404 5.25 1.3125C5.25 1.6606 5.38828 1.99444 5.63442 2.24058C5.88056 2.48672 6.2144 2.625 6.5625 2.625H9.1875C9.5356 2.625 9.86944 2.48672 10.1156 2.24058C10.3617 1.99444 10.5 1.6606 10.5 1.3125C10.5 0.964404 10.3617 0.630564 10.1156 0.384422C9.86944 0.138281 9.5356 0 9.1875 0H6.5625Z" fill="white"/>
<path fill-rule="evenodd" clip-rule="evenodd" d="M0 3.9375C0 3.24131 0.276562 2.57363 0.768845 2.08134C1.26113 1.58906 1.92881 1.3125 2.625 1.3125C2.625 2.35679 3.03984 3.35831 3.77827 4.09673C4.51669 4.83516 5.51821 5.25 6.5625 5.25H9.1875C10.2318 5.25 11.2333 4.83516 11.9717 4.09673C12.7102 3.35831 13.125 2.35679 13.125 1.3125C13.8212 1.3125 14.4889 1.58906 14.9812 2.08134C15.4734 2.57363 15.75 3.24131 15.75 3.9375V18.375C15.75 19.0712 15.4734 19.7389 14.9812 20.2312C14.4889 20.7234 13.8212 21 13.125 21H2.625C1.92881 21 1.26113 20.7234 0.768845 20.2312C0.276562 19.7389 0 19.0712 0 18.375V3.9375ZM3.9375 9.1875C3.5894 9.1875 3.25556 9.32578 3.00942 9.57192C2.76328 9.81807 2.625 10.1519 2.625 10.5C2.625 10.8481 2.76328 11.1819 3.00942 11.4281C3.25556 11.6742 3.5894 11.8125 3.9375 11.8125H3.95063C4.29872 11.8125 4.63256 11.6742 4.8787 11.4281C5.12485 11.1819 5.26313 10.8481 5.26313 10.5C5.26313 10.1519 5.12485 9.81807 4.8787 9.57192C4.63256 9.32578 4.29872 9.1875 3.95063 9.1875H3.9375ZM7.875 9.1875C7.5269 9.1875 7.19307 9.32578 6.94692 9.57192C6.70078 9.81807 6.5625 10.1519 6.5625 10.5C6.5625 10.8481 6.70078 11.1819 6.94692 11.4281C7.19307 11.6742 7.5269 11.8125 7.875 11.8125H11.8125C12.1606 11.8125 12.4944 11.6742 12.7406 11.4281C12.9867 11.1819 13.125 10.8481 13.125 10.5C13.125 10.1519 12.9867 9.81807 12.7406 9.57192C12.4944 9.32578 12.1606 9.1875 11.8125 9.1875H7.875ZM3.9375 14.4375C3.5894 14.4375 3.25556 14.5758 3.00942 14.8219C2.76328 15.0681 2.625 15.4019 2.625 15.75C2.625 16.0981 2.76328 16.4319 3.00942 16.6781C3.25556 16.9242 3.5894 17.0625 3.9375 17.0625H3.95063C4.29872 17.0625 4.63256 16.9242 4.8787 16.6781C5.12485 16.4319 5.26313 16.0981 5.26313 15.75C5.26313 15.4019 5.12485 15.0681 4.8787 14.8219C4.63256 14.5758 4.29872 14.4375 3.95063 14.4375H3.9375ZM7.875 14.4375C7.5269 14.4375 7.19307 14.5758 6.94692 14.8219C6.70078 15.0681 6.5625 15.4019 6.5625 15.75C6.5625 16.0981 6.70078 16.4319 6.94692 16.6781C7.19307 16.9242 7.5269 17.0625 7.875 17.0625H11.8125C12.1606 17.0625 12.4944 16.9242 12.7406 16.6781C12.9867 16.4319 13.125 16.0981 13.125 15.75C13.125 15.4019 12.9867 15.0681 12.7406 14.8219C12.4944 14.5758 12.1606 14.4375 11.8125 14.4375H7.875Z" fill="white"/>
</svg>
