<svg width="21" height="17" viewBox="0 0 21 17" fill="none" xmlns="http://www.w3.org/2000/svg">
<path d="M14 3.4C14 4.30174 13.6313 5.16654 12.9749 5.80416C12.3185 6.44179 11.4283 6.8 10.5 6.8C9.57174 6.8 8.6815 6.44179 8.02513 5.80416C7.36875 5.16654 7 4.30174 7 3.4C7 2.49826 7.36875 1.63346 8.02513 0.995837C8.6815 0.358213 9.57174 0 10.5 0C11.4283 0 12.3185 0.358213 12.9749 0.995837C13.6313 1.63346 14 2.49826 14 3.4ZM19.8333 5.66667C19.8333 6.26782 19.5875 6.84436 19.1499 7.26944C18.7123 7.69452 18.1188 7.93333 17.5 7.93333C16.8812 7.93333 16.2877 7.69452 15.8501 7.26944C15.4125 6.84436 15.1667 6.26782 15.1667 5.66667C15.1667 5.06551 15.4125 4.48897 15.8501 4.06389C16.2877 3.63881 16.8812 3.4 17.5 3.4C18.1188 3.4 18.7123 3.63881 19.1499 4.06389C19.5875 4.48897 19.8333 5.06551 19.8333 5.66667ZM15.1667 13.6C15.1667 12.3977 14.675 11.2446 13.7998 10.3944C12.9247 9.54428 11.7377 9.06667 10.5 9.06667C9.26232 9.06667 8.07534 9.54428 7.20017 10.3944C6.325 11.2446 5.83333 12.3977 5.83333 13.6V17H15.1667V13.6ZM5.83333 5.66667C5.83333 6.26782 5.5875 6.84436 5.14992 7.26944C4.71233 7.69452 4.11884 7.93333 3.5 7.93333C2.88116 7.93333 2.28767 7.69452 1.85008 7.26944C1.4125 6.84436 1.16667 6.26782 1.16667 5.66667C1.16667 5.06551 1.4125 4.48897 1.85008 4.06389C2.28767 3.63881 2.88116 3.4 3.5 3.4C4.11884 3.4 4.71233 3.63881 5.14992 4.06389C5.5875 4.48897 5.83333 5.06551 5.83333 5.66667ZM17.5 17V13.6C17.5017 12.4477 17.2005 11.3141 16.625 10.3065C17.1422 10.1779 17.6829 10.1658 18.2057 10.2711C18.7285 10.3763 19.2196 10.5962 19.6416 10.9139C20.0637 11.2316 20.4054 11.6387 20.6408 12.1042C20.8762 12.5698 20.9991 13.0813 21 13.6V17H17.5ZM4.375 10.3065C3.79954 11.3141 3.49837 12.4477 3.5 13.6V17H3.10007e-07V13.6C-0.000224546 13.081 0.121874 12.5688 0.356938 12.1027C0.592003 11.6366 0.933793 11.229 1.35611 10.9111C1.77844 10.5932 2.27008 10.3734 2.79336 10.2686C3.31665 10.1638 3.85768 10.1768 4.375 10.3065Z" fill="white"/>
</svg>
