<svg width="17" height="22" viewBox="0 0 17 22" fill="none" xmlns="http://www.w3.org/2000/svg">
<path d="M11.1347 7.67041L11.1347 7.67036C11.9013 6.90376 12.2795 5.99075 12.2795 4.90749C12.2795 3.82484 11.9014 2.91168 11.1347 2.14474C11.1346 2.14468 11.1346 2.14463 11.1345 2.14457M11.1347 7.67041L11.1345 2.14457M11.1347 7.67041C10.3681 8.43708 9.45484 8.81529 8.37169 8.81529M11.1347 7.67041L8.37169 8.81529M11.1345 2.14457C10.3677 1.37813 9.45456 1 8.37169 1C7.28843 1 6.37541 1.37819 5.60881 2.14478C4.84215 2.91144 4.46387 3.82463 4.46387 4.90749C4.46387 5.99066 4.84214 6.90379 5.60885 7.6704L11.1345 2.14457ZM8.37169 8.81529C7.28902 8.81529 6.37577 8.43704 5.60891 7.67045L8.37169 8.81529Z" stroke="#223151" stroke-width="2"/>
<path d="M15.5247 14.5232L15.5246 14.523C15.4148 14.1797 15.264 13.8367 15.0756 13.5052L15.9449 13.011L15.0756 13.5052C14.8884 13.1759 14.6765 12.9033 14.4513 12.6879L14.4511 12.6878C14.2368 12.4827 13.962 12.3057 13.6218 12.1708L15.5247 14.5232ZM15.5247 14.5232C15.6371 14.8745 15.7335 15.2667 15.8094 15.6891L15.5247 14.5232ZM11.428 12.6913L11.4269 12.692C11.0629 12.9239 10.6148 13.1146 10.1223 13.2738L11.428 12.6913ZM11.428 12.6913C11.7421 12.4906 12.0244 12.3086 12.2667 12.1506C12.4309 12.0437 12.5189 11.9961 12.5652 11.975M11.428 12.6913L12.5652 11.975M5.57219 12.6919L5.57152 12.6914C5.26048 12.4927 4.97811 12.3107 4.73241 12.1506L4.73221 12.1505C4.56812 12.0436 4.48012 11.996 4.43385 11.9748C4.03645 11.9799 3.68369 12.0497 3.37778 12.1708L3.37762 12.1709C3.03784 12.3054 2.7629 12.4823 2.54818 12.6877L5.57219 12.6919ZM5.57219 12.6919C5.93619 12.9241 6.38468 13.1149 6.87679 13.2738L5.57219 12.6919ZM1.92403 13.5048L1.92397 13.5049C1.7356 13.8365 1.58483 14.1795 1.47482 14.523L1.92403 13.5048ZM1.92403 13.5048C2.11053 13.1764 2.32248 12.9038 2.54798 12.6879L1.92403 13.5048ZM1.03835 16.8697L1.03833 16.87C1.01295 17.2358 1 17.6173 1 18.004C1 18.8402 1.25712 19.423 1.69456 19.8396C2.13662 20.2602 2.74611 20.5083 3.59435 20.5083H13.4056C14.2541 20.5083 14.8634 20.2602 15.3056 19.8393L15.3056 19.8393C15.7427 19.4234 15.9999 18.8409 16 18.0042L1.03835 16.8697ZM1.03835 16.8697C1.06299 16.5134 1.11351 16.1164 1.1901 15.6894L1.03835 16.8697ZM15.9612 16.8694C15.9366 16.514 15.886 16.1172 15.8094 15.6894L15.9612 16.8694ZM15.9612 16.8694L16.9588 16.8003M15.9612 16.8694L16.9588 16.8003M16.9588 16.8003L15.9613 16.8702M16.9588 16.8003L15.9613 16.8702M12.5652 11.975C12.9626 11.9801 13.3156 12.0497 13.6217 12.1708L12.5652 11.975ZM15.9613 16.8702C15.9867 17.2337 15.9998 17.6153 16 18.0038L15.9613 16.8702ZM8.49953 13.5348C9.0456 13.5348 9.59162 13.4454 10.1218 13.2739L6.877 13.2739C7.40743 13.4453 7.95329 13.5348 8.49953 13.5348ZM1.19012 15.6893C1.26593 15.267 1.36233 14.8748 1.47473 14.5233L1.19012 15.6893Z" stroke="#223151" stroke-width="2"/>
</svg>
